<svg xmlns="http://www.w3.org/2000/svg" xmlns:xlink="http://www.w3.org/1999/xlink" width="500" zoomAndPan="magnify" viewBox="0 0 375 374.999991" height="500" preserveAspectRatio="xMidYMid meet" version="1.0"><defs><clipPath id="1c8c3ff517"><path d="M 13.257812 0 L 362.007812 0 L 362.007812 312.75 L 13.257812 312.75 Z M 13.257812 0 " clip-rule="nonzero"/></clipPath><clipPath id="663139d31e"><path d="M 13.257812 61.96875 L 362.007812 61.96875 L 362.007812 374.71875 L 13.257812 374.71875 Z M 13.257812 61.96875 " clip-rule="nonzero"/></clipPath><clipPath id="0a5dc84a53"><path d="M 96.003906 90.101562 L 132.003906 90.101562 L 132.003906 126.101562 L 96.003906 126.101562 Z M 96.003906 90.101562 " clip-rule="nonzero"/></clipPath><clipPath id="70ec03a942"><path d="M 243.054688 90.101562 L 279.054688 90.101562 L 279.054688 126.101562 L 243.054688 126.101562 Z M 243.054688 90.101562 " clip-rule="nonzero"/></clipPath><clipPath id="03f358291d"><path d="M 100 152 L 275 152 L 275 240.5 L 100 240.5 Z M 100 152 " clip-rule="nonzero"/></clipPath></defs><g clip-path="url(#1c8c3ff517)"><path fill="#7ed957" d="M 338.898438 312.75 L 36.367188 312.75 C 23.632812 312.75 13.257812 302.390625 13.257812 289.679688 L 13.257812 23.070312 C 13.257812 10.359375 23.632812 0 36.367188 0 L 338.898438 0 C 351.632812 0 362.007812 10.359375 362.007812 23.070312 L 362.007812 289.679688 C 362.007812 302.390625 351.632812 312.75 338.898438 312.75 " fill-opacity="1" fill-rule="nonzero"/></g><g clip-path="url(#663139d31e)"><path fill="#008037" d="M 338.898438 374.71875 L 36.367188 374.71875 C 23.632812 374.71875 13.257812 364.359375 13.257812 351.648438 L 13.257812 85.039062 C 13.257812 72.328125 23.632812 61.96875 36.367188 61.96875 L 338.898438 61.96875 C 351.632812 61.96875 362.007812 72.328125 362.007812 85.039062 L 362.007812 351.648438 C 362.007812 364.359375 351.632812 374.71875 338.898438 374.71875 " fill-opacity="1" fill-rule="nonzero"/></g><g clip-path="url(#0a5dc84a53)"><path fill="#ffffff" d="M 114.003906 90.101562 C 104.0625 90.101562 96.003906 98.160156 96.003906 108.101562 C 96.003906 118.042969 104.0625 126.101562 114.003906 126.101562 C 123.945312 126.101562 132.003906 118.042969 132.003906 108.101562 C 132.003906 98.160156 123.945312 90.101562 114.003906 90.101562 " fill-opacity="1" fill-rule="nonzero"/></g><g clip-path="url(#70ec03a942)"><path fill="#ffffff" d="M 261.054688 90.101562 C 251.113281 90.101562 243.054688 98.160156 243.054688 108.101562 C 243.054688 118.042969 251.113281 126.101562 261.054688 126.101562 C 270.996094 126.101562 279.054688 118.042969 279.054688 108.101562 C 279.054688 98.160156 270.996094 90.101562 261.054688 90.101562 " fill-opacity="1" fill-rule="nonzero"/></g><g clip-path="url(#03f358291d)"><path fill="#ffffff" d="M 187.605469 240.5 C 185.09375 240.496094 182.585938 240.386719 180.082031 240.171875 C 177.582031 239.953125 175.09375 239.632812 172.617188 239.203125 C 170.140625 238.777344 167.6875 238.246094 165.257812 237.609375 C 162.828125 236.972656 160.429688 236.234375 158.0625 235.394531 C 155.695312 234.554688 153.367188 233.617188 151.082031 232.578125 C 148.792969 231.539062 146.554688 230.40625 144.363281 229.179688 C 142.171875 227.953125 140.039062 226.632812 137.957031 225.222656 C 135.878906 223.8125 133.863281 222.320312 131.910156 220.738281 C 129.960938 219.15625 128.078125 217.496094 126.265625 215.753906 C 124.457031 214.015625 122.722656 212.199219 121.066406 210.3125 C 119.410156 208.425781 117.835938 206.46875 116.34375 204.449219 C 114.851562 202.425781 113.449219 200.34375 112.136719 198.203125 C 110.824219 196.0625 109.601562 193.871094 108.476562 191.625 C 107.347656 189.382812 106.316406 187.09375 105.382812 184.761719 C 104.453125 182.429688 103.617188 180.0625 102.886719 177.660156 C 102.15625 175.253906 101.527344 172.824219 101 170.371094 C 100.886719 169.816406 100.804688 169.253906 100.753906 168.691406 C 100.699219 168.128906 100.679688 167.5625 100.691406 166.996094 C 100.703125 166.429688 100.742188 165.863281 100.816406 165.304688 C 100.890625 164.742188 100.996094 164.1875 101.128906 163.636719 C 101.265625 163.085938 101.429688 162.542969 101.625 162.011719 C 101.824219 161.480469 102.046875 160.960938 102.300781 160.453125 C 102.554688 159.949219 102.832031 159.457031 103.140625 158.980469 C 103.449219 158.507812 103.78125 158.046875 104.140625 157.609375 C 104.5 157.171875 104.882812 156.753906 105.285156 156.359375 C 105.691406 155.960938 106.117188 155.589844 106.5625 155.242188 C 107.011719 154.890625 107.472656 154.570312 107.957031 154.273438 C 108.4375 153.976562 108.9375 153.707031 109.449219 153.464844 C 109.960938 153.222656 110.484375 153.007812 111.019531 152.824219 C 111.558594 152.640625 112.101562 152.488281 112.652344 152.363281 C 113.207031 152.242188 113.765625 152.148438 114.328125 152.089844 C 114.890625 152.027344 115.457031 152 116.023438 152 C 116.894531 152.003906 117.761719 152.082031 118.625 152.234375 C 119.484375 152.386719 120.324219 152.609375 121.144531 152.902344 C 121.96875 153.199219 122.757812 153.5625 123.519531 153.992188 C 124.277344 154.421875 124.996094 154.914062 125.671875 155.46875 C 126.347656 156.019531 126.972656 156.625 127.546875 157.285156 C 128.117188 157.945312 128.628906 158.648438 129.082031 159.394531 C 129.535156 160.140625 129.921875 160.921875 130.242188 161.734375 C 130.558594 162.546875 130.808594 163.382812 130.984375 164.238281 C 131.332031 165.839844 131.75 167.421875 132.230469 168.988281 C 132.714844 170.554688 133.261719 172.097656 133.875 173.617188 C 134.488281 175.136719 135.167969 176.628906 135.90625 178.089844 C 136.648438 179.550781 137.445312 180.980469 138.308594 182.375 C 139.167969 183.769531 140.089844 185.125 141.0625 186.441406 C 142.039062 187.757812 143.070312 189.03125 144.152344 190.261719 C 145.238281 191.488281 146.371094 192.671875 147.554688 193.804688 C 148.742188 194.9375 149.96875 196.019531 151.246094 197.046875 C 152.523438 198.074219 153.839844 199.050781 155.195312 199.964844 C 156.554688 200.882812 157.949219 201.742188 159.382812 202.539062 C 160.8125 203.339844 162.273438 204.074219 163.769531 204.75 C 165.261719 205.425781 166.78125 206.035156 168.328125 206.582031 C 169.871094 207.128906 171.4375 207.605469 173.023438 208.019531 C 174.609375 208.433594 176.210938 208.777344 177.824219 209.058594 C 179.441406 209.335938 181.066406 209.542969 182.699219 209.683594 C 184.332031 209.824219 185.964844 209.894531 187.605469 209.894531 C 189.242188 209.890625 190.878906 209.820312 192.511719 209.679688 C 194.144531 209.539062 195.765625 209.332031 197.382812 209.050781 C 198.996094 208.773438 200.59375 208.429688 202.179688 208.015625 C 203.765625 207.601562 205.332031 207.121094 206.875 206.574219 C 208.421875 206.027344 209.9375 205.417969 211.429688 204.742188 C 212.925781 204.066406 214.386719 203.328125 215.816406 202.53125 C 217.246094 201.730469 218.640625 200.875 219.996094 199.957031 C 221.355469 199.039062 222.671875 198.066406 223.945312 197.039062 C 225.222656 196.007812 226.449219 194.929688 227.632812 193.796875 C 228.816406 192.664062 229.949219 191.480469 231.035156 190.253906 C 232.117188 189.023438 233.148438 187.75 234.121094 186.433594 C 235.097656 185.117188 236.015625 183.761719 236.875 182.371094 C 237.738281 180.976562 238.539062 179.546875 239.277344 178.085938 C 240.015625 176.625 240.691406 175.132812 241.304688 173.613281 C 241.917969 172.09375 242.46875 170.550781 242.949219 168.988281 C 243.433594 167.421875 243.847656 165.835938 244.195312 164.238281 C 244.371094 163.382812 244.621094 162.546875 244.941406 161.734375 C 245.257812 160.921875 245.644531 160.140625 246.097656 159.394531 C 246.550781 158.648438 247.0625 157.945312 247.636719 157.285156 C 248.207031 156.625 248.832031 156.019531 249.507812 155.46875 C 250.183594 154.914062 250.902344 154.421875 251.664062 153.992188 C 252.421875 153.5625 253.214844 153.199219 254.035156 152.902344 C 254.855469 152.609375 255.699219 152.386719 256.558594 152.234375 C 257.417969 152.082031 258.285156 152.003906 259.15625 152 C 259.722656 152 260.289062 152.027344 260.851562 152.089844 C 261.414062 152.148438 261.972656 152.242188 262.527344 152.363281 C 263.078125 152.488281 263.625 152.640625 264.160156 152.824219 C 264.695312 153.007812 265.21875 153.222656 265.730469 153.464844 C 266.246094 153.707031 266.742188 153.976562 267.222656 154.273438 C 267.707031 154.570312 268.171875 154.890625 268.617188 155.242188 C 269.0625 155.589844 269.488281 155.960938 269.894531 156.359375 C 270.300781 156.753906 270.679688 157.171875 271.039062 157.609375 C 271.398438 158.046875 271.730469 158.507812 272.039062 158.980469 C 272.347656 159.457031 272.628906 159.949219 272.882812 160.453125 C 273.132812 160.960938 273.359375 161.480469 273.554688 162.011719 C 273.75 162.542969 273.914062 163.085938 274.050781 163.636719 C 274.1875 164.1875 274.289062 164.742188 274.363281 165.304688 C 274.4375 165.863281 274.480469 166.429688 274.492188 166.996094 C 274.5 167.5625 274.480469 168.128906 274.429688 168.691406 C 274.375 169.253906 274.292969 169.816406 274.179688 170.371094 C 273.65625 172.824219 273.027344 175.253906 272.296875 177.65625 C 271.566406 180.058594 270.734375 182.425781 269.800781 184.757812 C 268.867188 187.089844 267.839844 189.378906 266.710938 191.625 C 265.585938 193.867188 264.367188 196.0625 263.050781 198.203125 C 261.738281 200.34375 260.339844 202.425781 258.847656 204.445312 C 257.359375 206.46875 255.785156 208.421875 254.128906 210.308594 C 252.472656 212.199219 250.738281 214.011719 248.929688 215.753906 C 247.117188 217.492188 245.238281 219.15625 243.285156 220.734375 C 241.335938 222.316406 239.320312 223.8125 237.242188 225.222656 C 235.164062 226.628906 233.027344 227.949219 230.835938 229.175781 C 228.648438 230.40625 226.410156 231.539062 224.121094 232.578125 C 221.835938 233.613281 219.507812 234.554688 217.140625 235.394531 C 214.773438 236.234375 212.375 236.972656 209.945312 237.609375 C 207.515625 238.242188 205.066406 238.777344 202.589844 239.203125 C 200.117188 239.632812 197.628906 239.953125 195.125 240.171875 C 192.625 240.386719 190.117188 240.496094 187.605469 240.5 Z M 187.605469 240.5 " fill-opacity="1" fill-rule="nonzero"/></g></svg>