<svg xmlns="http://www.w3.org/2000/svg" xmlns:xlink="http://www.w3.org/1999/xlink" width="500" zoomAndPan="magnify" viewBox="0 0 375 374.999991" height="500" preserveAspectRatio="xMidYMid meet" version="1.0"><defs><g/><clipPath id="cc8dab42bf"><path d="M 46.644531 139.808594 L 131.394531 139.808594 L 131.394531 215.558594 L 46.644531 215.558594 Z M 46.644531 139.808594 " clip-rule="nonzero"/></clipPath><clipPath id="3424a74088"><path d="M 46.644531 154.871094 L 131.394531 154.871094 L 131.394531 230.621094 L 46.644531 230.621094 Z M 46.644531 154.871094 " clip-rule="nonzero"/></clipPath><clipPath id="b5d75fd3bc"><path d="M 66.761719 161.710938 L 75.761719 161.710938 L 75.761719 170.710938 L 66.761719 170.710938 Z M 66.761719 161.710938 " clip-rule="nonzero"/></clipPath><clipPath id="159fe94c13"><path d="M 102.503906 161.710938 L 111.503906 161.710938 L 111.503906 170.710938 L 102.503906 170.710938 Z M 102.503906 161.710938 " clip-rule="nonzero"/></clipPath><clipPath id="5a5b0073f1"><path d="M 67.511719 176.753906 L 110 176.753906 L 110 198.503906 L 67.511719 198.503906 Z M 67.511719 176.753906 " clip-rule="nonzero"/></clipPath></defs><g clip-path="url(#cc8dab42bf)"><path fill="#7ed957" d="M 125.777344 215.558594 L 52.265625 215.558594 C 49.171875 215.558594 46.652344 213.050781 46.652344 209.96875 L 46.652344 145.394531 C 46.652344 142.316406 49.171875 139.808594 52.265625 139.808594 L 125.777344 139.808594 C 128.871094 139.808594 131.390625 142.316406 131.390625 145.394531 L 131.390625 209.96875 C 131.390625 213.050781 128.871094 215.558594 125.777344 215.558594 " fill-opacity="1" fill-rule="nonzero"/></g><g clip-path="url(#3424a74088)"><path fill="#008037" d="M 125.777344 230.621094 L 52.265625 230.621094 C 49.171875 230.621094 46.652344 228.113281 46.652344 225.03125 L 46.652344 160.457031 C 46.652344 157.378906 49.171875 154.871094 52.265625 154.871094 L 125.777344 154.871094 C 128.871094 154.871094 131.390625 157.378906 131.390625 160.457031 L 131.390625 225.03125 C 131.390625 228.113281 128.871094 230.621094 125.777344 230.621094 " fill-opacity="1" fill-rule="nonzero"/></g><g clip-path="url(#b5d75fd3bc)"><path fill="#ffffff" d="M 71.261719 161.710938 C 68.773438 161.710938 66.761719 163.722656 66.761719 166.210938 C 66.761719 168.695312 68.773438 170.710938 71.261719 170.710938 C 73.746094 170.710938 75.761719 168.695312 75.761719 166.210938 C 75.761719 163.722656 73.746094 161.710938 71.261719 161.710938 " fill-opacity="1" fill-rule="nonzero"/></g><g clip-path="url(#159fe94c13)"><path fill="#ffffff" d="M 107.003906 161.710938 C 104.519531 161.710938 102.503906 163.722656 102.503906 166.210938 C 102.503906 168.695312 104.519531 170.710938 107.003906 170.710938 C 109.488281 170.710938 111.503906 168.695312 111.503906 166.210938 C 111.503906 163.722656 109.488281 161.710938 107.003906 161.710938 " fill-opacity="1" fill-rule="nonzero"/></g><g clip-path="url(#5a5b0073f1)"><path fill="#ffffff" d="M 88.886719 198.503906 C 87.671875 198.503906 86.46875 198.398438 85.269531 198.1875 C 84.070312 197.976562 82.902344 197.664062 81.753906 197.25 C 80.609375 196.835938 79.507812 196.328125 78.449219 195.722656 C 77.386719 195.117188 76.386719 194.425781 75.441406 193.648438 C 74.496094 192.871094 73.625 192.015625 72.820312 191.085938 C 72.019531 190.15625 71.300781 189.164062 70.667969 188.109375 C 70.03125 187.054688 69.488281 185.953125 69.035156 184.804688 C 68.585938 183.65625 68.230469 182.480469 67.976562 181.269531 C 67.921875 180.996094 67.898438 180.71875 67.902344 180.441406 C 67.90625 180.160156 67.941406 179.886719 68.007812 179.613281 C 68.074219 179.34375 68.167969 179.082031 68.289062 178.832031 C 68.414062 178.582031 68.5625 178.351562 68.734375 178.132812 C 68.910156 177.917969 69.105469 177.722656 69.320312 177.550781 C 69.535156 177.378906 69.769531 177.234375 70.015625 177.113281 C 70.265625 176.996094 70.523438 176.90625 70.789062 176.84375 C 71.058594 176.785156 71.328125 176.753906 71.605469 176.753906 C 72.027344 176.757812 72.441406 176.832031 72.839844 176.976562 C 73.242188 177.125 73.605469 177.332031 73.933594 177.605469 C 74.261719 177.878906 74.539062 178.203125 74.757812 178.574219 C 74.976562 178.941406 75.132812 179.339844 75.21875 179.761719 C 75.386719 180.550781 75.617188 181.320312 75.914062 182.066406 C 76.210938 182.816406 76.570312 183.535156 76.984375 184.21875 C 77.402344 184.90625 77.871094 185.554688 78.398438 186.15625 C 78.921875 186.761719 79.492188 187.320312 80.109375 187.824219 C 80.726562 188.332031 81.382812 188.78125 82.074219 189.175781 C 82.765625 189.570312 83.484375 189.898438 84.234375 190.167969 C 84.980469 190.4375 85.746094 190.640625 86.527344 190.777344 C 87.308594 190.914062 88.09375 190.984375 88.886719 190.984375 C 89.679688 190.980469 90.46875 190.914062 91.25 190.777344 C 92.03125 190.640625 92.792969 190.4375 93.542969 190.167969 C 94.289062 189.898438 95.007812 189.566406 95.699219 189.171875 C 96.390625 188.78125 97.046875 188.332031 97.664062 187.824219 C 98.28125 187.316406 98.851562 186.761719 99.375 186.15625 C 99.898438 185.550781 100.371094 184.90625 100.785156 184.21875 C 101.203125 183.53125 101.558594 182.816406 101.855469 182.066406 C 102.152344 181.320312 102.382812 180.550781 102.554688 179.761719 C 102.640625 179.339844 102.792969 178.941406 103.011719 178.574219 C 103.230469 178.203125 103.507812 177.878906 103.835938 177.605469 C 104.164062 177.332031 104.527344 177.125 104.929688 176.976562 C 105.328125 176.832031 105.742188 176.757812 106.164062 176.753906 C 106.441406 176.753906 106.710938 176.785156 106.980469 176.84375 C 107.246094 176.90625 107.503906 176.996094 107.753906 177.113281 C 108 177.234375 108.234375 177.378906 108.449219 177.550781 C 108.664062 177.722656 108.859375 177.917969 109.035156 178.132812 C 109.207031 178.351562 109.355469 178.582031 109.480469 178.832031 C 109.601562 179.082031 109.695312 179.34375 109.761719 179.613281 C 109.828125 179.886719 109.863281 180.160156 109.867188 180.441406 C 109.875 180.71875 109.847656 180.996094 109.792969 181.269531 C 109.539062 182.480469 109.1875 183.65625 108.734375 184.804688 C 108.285156 185.953125 107.742188 187.054688 107.105469 188.109375 C 106.472656 189.164062 105.753906 190.15625 104.953125 191.085938 C 104.148438 192.015625 103.277344 192.867188 102.332031 193.648438 C 101.390625 194.425781 100.386719 195.117188 99.328125 195.722656 C 98.269531 196.328125 97.164062 196.835938 96.019531 197.25 C 94.875 197.664062 93.703125 197.976562 92.507812 198.1875 C 91.308594 198.398438 90.105469 198.503906 88.886719 198.503906 Z M 88.886719 198.503906 " fill-opacity="1" fill-rule="nonzero"/></g><g fill="#ff914d" fill-opacity="1"><g transform="translate(158.353559, 173.999989)"><g><path d="M 22.574219 0 L 29.421875 0 L 17.679688 -29.046875 L 11.742188 -29.046875 L 0.332031 0 L 7.011719 0 L 9.003906 -5.476562 L 20.542969 -5.476562 Z M 14.773438 -21.371094 L 18.589844 -10.957031 L 10.957031 -10.957031 Z M 14.773438 -21.371094 "/></g></g></g><g fill="#ff914d" fill-opacity="1"><g transform="translate(188.147758, 173.999989)"><g><path d="M 27.511719 0 L 16.558594 -15.105469 L 26.433594 -29.046875 L 19.128906 -29.046875 L 9.585938 -15.601562 L 9.585938 -29.046875 L 3.320312 -29.046875 L 3.320312 0 L 9.585938 0 L 9.585938 -14.152344 L 19.835938 0 Z M 27.511719 0 "/></g></g></g><g fill="#ff914d" fill-opacity="1"><g transform="translate(158.353559, 222.749985)"><g><path d="M 38.882812 0 L 34.402344 -29.046875 L 28.09375 -29.046875 L 20.210938 -11.203125 L 12.324219 -29.046875 L 6.058594 -29.046875 L 1.492188 0 L 7.882812 0 L 10.746094 -18.921875 L 19.421875 -0.0429688 L 20.957031 -0.0429688 L 29.628906 -18.921875 L 32.492188 0 Z M 38.882812 0 "/></g></g></g><g fill="#ff914d" fill-opacity="1"><g transform="translate(198.812254, 222.749985)"><g><path d="M 21.164062 -22.410156 L 20.542969 -20.292969 C 18.589844 -21.992188 16.058594 -23.03125 13.15625 -23.03125 C 6.433594 -23.03125 1.410156 -17.96875 1.410156 -11.203125 C 1.410156 -4.441406 6.433594 0.664062 13.15625 0.664062 C 16.019531 0.664062 18.507812 -0.332031 20.417969 -2.035156 L 20.957031 0 L 25.6875 0 L 25.6875 -22.410156 Z M 13.652344 -5.0625 C 10.125 -5.0625 7.550781 -7.71875 7.550781 -11.203125 C 7.550781 -14.730469 10.125 -17.347656 13.652344 -17.347656 C 17.179688 -17.347656 19.753906 -14.730469 19.753906 -11.203125 C 19.753906 -7.675781 17.179688 -5.0625 13.652344 -5.0625 Z M 13.652344 -5.0625 "/></g></g></g><g fill="#ff914d" fill-opacity="1"><g transform="translate(227.444558, 222.749985)"><g><path d="M 14.359375 -22.53125 C 11.453125 -22.53125 9.460938 -21.621094 7.84375 -19.628906 L 6.765625 -22.410156 L 2.90625 -22.410156 L 2.90625 0 L 8.964844 0 L 8.964844 -11.621094 C 8.964844 -15.269531 10.292969 -16.804688 13.695312 -16.804688 L 16.351562 -16.804688 L 16.351562 -22.53125 Z M 14.359375 -22.53125 "/></g></g></g><g fill="#ff914d" fill-opacity="1"><g transform="translate(244.333473, 222.749985)"><g><path d="M 23.445312 0 L 15.0625 -11.703125 L 22.65625 -22.410156 L 15.6875 -22.410156 L 8.964844 -12.449219 L 8.964844 -30.460938 L 2.90625 -30.460938 L 2.90625 0 L 8.964844 0 L 8.964844 -10.707031 L 16.101562 0 Z M 23.445312 0 "/></g></g></g><g fill="#ff914d" fill-opacity="1"><g transform="translate(267.61278, 222.749985)"><g><path d="M 24.648438 -11.246094 C 24.648438 -17.71875 19.917969 -23.03125 13.03125 -23.03125 C 6.390625 -23.03125 1.410156 -17.925781 1.410156 -11.203125 C 1.410156 -4.480469 6.433594 0.664062 13.03125 0.664062 C 18.257812 0.664062 22.53125 -2.449219 24.152344 -7.34375 L 17.800781 -7.34375 C 16.890625 -5.726562 15.148438 -4.730469 13.03125 -4.730469 C 10.082031 -4.730469 8.09375 -6.433594 7.550781 -9.503906 L 24.523438 -9.503906 C 24.609375 -10.082031 24.648438 -10.664062 24.648438 -11.246094 Z M 13.03125 -17.84375 C 15.769531 -17.84375 17.71875 -16.351562 18.589844 -13.609375 L 7.71875 -13.609375 C 8.425781 -16.265625 10.332031 -17.84375 13.03125 -17.84375 Z M 13.03125 -17.84375 "/></g></g></g><g fill="#ff914d" fill-opacity="1"><g transform="translate(293.672326, 222.749985)"><g><path d="M 13.859375 -5.394531 C 11.621094 -5.394531 10.375 -6.640625 10.375 -8.796875 L 10.375 -17.511719 L 16.472656 -17.511719 L 16.472656 -22.410156 L 10.292969 -22.410156 L 10.292969 -28.21875 L 9.128906 -28.21875 L 0.289062 -18.839844 L 0.289062 -17.511719 L 4.316406 -17.511719 L 4.316406 -7.96875 C 4.316406 -3.03125 7.34375 0 12.285156 0 L 16.597656 0 L 16.597656 -5.394531 Z M 13.859375 -5.394531 "/></g></g></g></svg>