<svg xmlns="http://www.w3.org/2000/svg" xmlns:xlink="http://www.w3.org/1999/xlink" width="500" zoomAndPan="magnify" viewBox="0 0 375 374.999991" height="500" preserveAspectRatio="xMidYMid meet" version="1.0"><defs><g/><clipPath id="d776185f9f"><path d="M 0 120.566406 L 119.25 120.566406 L 119.25 227.066406 L 0 227.066406 Z M 0 120.566406 " clip-rule="nonzero"/></clipPath><clipPath id="a66d5ba6cd"><path d="M 0 141.707031 L 119.25 141.707031 L 119.25 248.207031 L 0 248.207031 Z M 0 141.707031 " clip-rule="nonzero"/></clipPath><clipPath id="61420ddef3"><path d="M 28.230469 151.304688 L 40.230469 151.304688 L 40.230469 163.304688 L 28.230469 163.304688 Z M 28.230469 151.304688 " clip-rule="nonzero"/></clipPath><clipPath id="8b499abca2"><path d="M 78.394531 151.304688 L 90.394531 151.304688 L 90.394531 163.304688 L 78.394531 163.304688 Z M 78.394531 151.304688 " clip-rule="nonzero"/></clipPath><clipPath id="68ba148dd6"><path d="M 29.28125 172.417969 L 89 172.417969 L 89 202.417969 L 29.28125 202.417969 Z M 29.28125 172.417969 " clip-rule="nonzero"/></clipPath></defs><g clip-path="url(#d776185f9f)"><path fill="#7ed957" d="M 111.347656 227.066406 L 7.902344 227.066406 C 3.546875 227.066406 0 223.539062 0 219.207031 L 0 128.421875 C 0 124.09375 3.546875 120.566406 7.902344 120.566406 L 111.347656 120.566406 C 115.703125 120.566406 119.25 124.09375 119.25 128.421875 L 119.25 219.207031 C 119.25 223.539062 115.703125 227.066406 111.347656 227.066406 " fill-opacity="1" fill-rule="nonzero"/></g><g clip-path="url(#a66d5ba6cd)"><path fill="#008037" d="M 111.347656 248.207031 L 7.902344 248.207031 C 3.546875 248.207031 0 244.679688 0 240.347656 L 0 149.5625 C 0 145.230469 3.546875 141.707031 7.902344 141.707031 L 111.347656 141.707031 C 115.703125 141.707031 119.25 145.230469 119.25 149.5625 L 119.25 240.347656 C 119.25 244.679688 115.703125 248.207031 111.347656 248.207031 " fill-opacity="1" fill-rule="nonzero"/></g><g clip-path="url(#61420ddef3)"><path fill="#ffffff" d="M 34.230469 151.304688 C 30.914062 151.304688 28.230469 153.988281 28.230469 157.304688 C 28.230469 160.617188 30.914062 163.304688 34.230469 163.304688 C 37.542969 163.304688 40.230469 160.617188 40.230469 157.304688 C 40.230469 153.988281 37.542969 151.304688 34.230469 151.304688 " fill-opacity="1" fill-rule="nonzero"/></g><g clip-path="url(#8b499abca2)"><path fill="#ffffff" d="M 84.394531 151.304688 C 81.082031 151.304688 78.394531 153.988281 78.394531 157.304688 C 78.394531 160.617188 81.082031 163.304688 84.394531 163.304688 C 87.710938 163.304688 90.394531 160.617188 90.394531 157.304688 C 90.394531 153.988281 87.710938 151.304688 84.394531 151.304688 " fill-opacity="1" fill-rule="nonzero"/></g><g clip-path="url(#68ba148dd6)"><path fill="#ffffff" d="M 59.285156 202.417969 C 57.582031 202.417969 55.886719 202.269531 54.207031 201.980469 C 52.527344 201.691406 50.882812 201.257812 49.273438 200.6875 C 47.667969 200.117188 46.121094 199.417969 44.632812 198.582031 C 43.144531 197.746094 41.738281 196.792969 40.410156 195.71875 C 39.085938 194.648438 37.859375 193.46875 36.734375 192.1875 C 35.609375 190.902344 34.601562 189.535156 33.710938 188.082031 C 32.816406 186.628906 32.054688 185.109375 31.421875 183.523438 C 30.789062 181.941406 30.292969 180.316406 29.933594 178.648438 C 29.859375 178.269531 29.824219 177.886719 29.828125 177.503906 C 29.835938 177.117188 29.886719 176.738281 29.980469 176.363281 C 30.070312 175.988281 30.203125 175.628906 30.375 175.285156 C 30.546875 174.941406 30.753906 174.621094 31 174.320312 C 31.242188 174.023438 31.515625 173.753906 31.820312 173.519531 C 32.125 173.28125 32.449219 173.082031 32.796875 172.914062 C 33.144531 172.75 33.507812 172.628906 33.882812 172.542969 C 34.261719 172.460938 34.640625 172.417969 35.027344 172.417969 C 35.621094 172.421875 36.203125 172.523438 36.761719 172.726562 C 37.324219 172.925781 37.835938 173.21875 38.296875 173.59375 C 38.757812 173.972656 39.144531 174.417969 39.453125 174.925781 C 39.761719 175.4375 39.976562 175.984375 40.097656 176.566406 C 40.332031 177.65625 40.660156 178.714844 41.078125 179.746094 C 41.492188 180.78125 41.996094 181.769531 42.578125 182.714844 C 43.164062 183.664062 43.824219 184.554688 44.558594 185.390625 C 45.296875 186.222656 46.097656 186.992188 46.964844 187.691406 C 47.832031 188.386719 48.75 189.007812 49.722656 189.550781 C 50.691406 190.09375 51.703125 190.550781 52.753906 190.921875 C 53.800781 191.292969 54.875 191.574219 55.972656 191.761719 C 57.070312 191.949219 58.175781 192.042969 59.285156 192.042969 C 60.398438 192.042969 61.503906 191.949219 62.601562 191.757812 C 63.695312 191.570312 64.769531 191.289062 65.816406 190.917969 C 66.867188 190.546875 67.875 190.089844 68.847656 189.546875 C 69.820312 189.007812 70.738281 188.386719 71.601562 187.6875 C 72.46875 186.988281 73.269531 186.222656 74.003906 185.386719 C 74.742188 184.550781 75.402344 183.660156 75.984375 182.714844 C 76.570312 181.765625 77.070312 180.777344 77.488281 179.746094 C 77.902344 178.714844 78.230469 177.65625 78.464844 176.566406 C 78.585938 175.984375 78.800781 175.4375 79.109375 174.925781 C 79.417969 174.417969 79.804688 173.972656 80.265625 173.59375 C 80.726562 173.21875 81.238281 172.925781 81.800781 172.726562 C 82.363281 172.523438 82.941406 172.421875 83.539062 172.417969 C 83.921875 172.417969 84.304688 172.460938 84.679688 172.542969 C 85.054688 172.628906 85.417969 172.75 85.765625 172.914062 C 86.113281 173.082031 86.441406 173.28125 86.742188 173.519531 C 87.046875 173.753906 87.320312 174.023438 87.5625 174.320312 C 87.808594 174.621094 88.015625 174.941406 88.1875 175.285156 C 88.359375 175.628906 88.492188 175.988281 88.585938 176.363281 C 88.675781 176.738281 88.726562 177.117188 88.734375 177.503906 C 88.742188 177.886719 88.707031 178.269531 88.628906 178.648438 C 88.273438 180.316406 87.777344 181.941406 87.144531 183.523438 C 86.511719 185.109375 85.75 186.628906 84.855469 188.082031 C 83.964844 189.535156 82.957031 190.902344 81.832031 192.1875 C 80.707031 193.46875 79.484375 194.644531 78.15625 195.71875 C 76.832031 196.792969 75.425781 197.746094 73.9375 198.582031 C 72.453125 199.414062 70.902344 200.117188 69.296875 200.6875 C 67.691406 201.257812 66.046875 201.691406 64.367188 201.980469 C 62.683594 202.269531 60.992188 202.417969 59.285156 202.417969 Z M 59.285156 202.417969 " fill-opacity="1" fill-rule="nonzero"/></g><g fill="#ff914d" fill-opacity="1"><g transform="translate(156.779466, 168.552918)"><g><path d="M 31.683594 0 L 41.292969 0 L 24.8125 -40.769531 L 16.480469 -40.769531 L 0.464844 0 L 9.84375 0 L 12.636719 -7.6875 L 28.828125 -7.6875 Z M 20.734375 -29.996094 L 26.09375 -15.375 L 15.375 -15.375 Z M 20.734375 -29.996094 "/></g></g></g><g fill="#ff914d" fill-opacity="1"><g transform="translate(198.59523, 168.552918)"><g><path d="M 38.613281 0 L 23.238281 -21.199219 L 37.101562 -40.769531 L 26.847656 -40.769531 L 13.453125 -21.898438 L 13.453125 -40.769531 L 4.660156 -40.769531 L 4.660156 0 L 13.453125 0 L 13.453125 -19.859375 L 27.839844 0 Z M 38.613281 0 "/></g></g></g><g fill="#ff914d" fill-opacity="1"><g transform="translate(156.779466, 236.972894)"><g><path d="M 54.570312 0 L 48.28125 -40.769531 L 39.429688 -40.769531 L 28.363281 -15.726562 L 17.296875 -40.769531 L 8.503906 -40.769531 L 2.097656 0 L 11.066406 0 L 15.085938 -26.558594 L 27.257812 -0.0585938 L 29.410156 -0.0585938 L 41.585938 -26.558594 L 45.601562 0 Z M 54.570312 0 "/></g></g></g><g fill="#ff914d" fill-opacity="1"><g transform="translate(213.562711, 236.972894)"><g><path d="M 29.703125 -31.449219 L 28.828125 -28.480469 C 26.09375 -30.867188 22.539062 -32.324219 18.460938 -32.324219 C 9.027344 -32.324219 1.980469 -25.21875 1.980469 -15.726562 C 1.980469 -6.230469 9.027344 0.933594 18.460938 0.933594 C 22.480469 0.933594 25.976562 -0.464844 28.65625 -2.855469 L 29.410156 0 L 36.050781 0 L 36.050781 -31.449219 Z M 19.160156 -7.105469 C 14.210938 -7.105469 10.601562 -10.832031 10.601562 -15.726562 C 10.601562 -20.675781 14.210938 -24.34375 19.160156 -24.34375 C 24.113281 -24.34375 27.722656 -20.675781 27.722656 -15.726562 C 27.722656 -10.773438 24.113281 -7.105469 19.160156 -7.105469 Z M 19.160156 -7.105469 "/></g></g></g><g fill="#ff914d" fill-opacity="1"><g transform="translate(253.74777, 236.972894)"><g><path d="M 20.152344 -31.625 C 16.074219 -31.625 13.277344 -30.34375 11.007812 -27.546875 L 9.492188 -31.449219 L 4.078125 -31.449219 L 4.078125 0 L 12.582031 0 L 12.582031 -16.308594 C 12.582031 -21.433594 14.445312 -23.585938 19.21875 -23.585938 L 22.945312 -23.585938 L 22.945312 -31.625 Z M 20.152344 -31.625 "/></g></g></g><g fill="#ff914d" fill-opacity="1"><g transform="translate(277.451139, 236.972894)"><g><path d="M 32.90625 0 L 21.140625 -16.425781 L 31.800781 -31.449219 L 22.015625 -31.449219 L 12.582031 -17.472656 L 12.582031 -42.75 L 4.078125 -42.75 L 4.078125 0 L 12.582031 0 L 12.582031 -15.027344 L 22.597656 0 Z M 32.90625 0 "/></g></g></g><g fill="#ff914d" fill-opacity="1"><g transform="translate(310.123339, 236.972894)"><g><path d="M 34.59375 -15.785156 C 34.59375 -24.867188 27.957031 -32.324219 18.289062 -32.324219 C 8.96875 -32.324219 1.980469 -25.160156 1.980469 -15.726562 C 1.980469 -6.289062 9.027344 0.933594 18.289062 0.933594 C 25.625 0.933594 31.625 -3.4375 33.894531 -10.308594 L 24.984375 -10.308594 C 23.703125 -8.039062 21.257812 -6.640625 18.289062 -6.640625 C 14.152344 -6.640625 11.355469 -9.027344 10.601562 -13.335938 L 34.421875 -13.335938 C 34.535156 -14.152344 34.59375 -14.96875 34.59375 -15.785156 Z M 18.289062 -25.042969 C 22.132812 -25.042969 24.867188 -22.945312 26.09375 -19.101562 L 10.832031 -19.101562 C 11.824219 -22.832031 14.503906 -25.042969 18.289062 -25.042969 Z M 18.289062 -25.042969 "/></g></g></g><g fill="#ff914d" fill-opacity="1"><g transform="translate(346.697567, 236.972894)"><g><path d="M 19.453125 -7.570312 C 16.308594 -7.570312 14.558594 -9.320312 14.558594 -12.347656 L 14.558594 -24.578125 L 23.121094 -24.578125 L 23.121094 -31.449219 L 14.445312 -31.449219 L 14.445312 -39.605469 L 12.8125 -39.605469 L 0.40625 -26.441406 L 0.40625 -24.578125 L 6.058594 -24.578125 L 6.058594 -11.183594 C 6.058594 -4.25 10.308594 0 17.238281 0 L 23.296875 0 L 23.296875 -7.570312 Z M 19.453125 -7.570312 "/></g></g></g></svg>